<svg width="800" height="800" viewBox="0 0 800 800" fill="none" xmlns="http://www.w3.org/2000/svg">
<path d="M690 491.667C621.667 285 465 436.667 465 436.667C465 436.667 443.333 438.333 418.333 446.667C365 395 265 426.667 265 426.667C265 426.667 79.9999 365 101.667 571.667C111.667 660 180 716.667 275 716.667C323.333 716.667 365 701.667 395 676.667C445 721.667 518.333 730 591.667 696.667C681.667 656.667 718.333 576.667 690 491.667Z" fill="#980522"/>
<path d="M495 588.333C488.333 523.333 540 405 583.333 383.333C523.333 381.667 465 436.667 465 436.667C465 436.667 445 438.333 420 446.667C418.333 445 416.667 445 415 445C438.333 466.667 453.333 506.667 446.667 571.667C441.667 615 423.333 650 395 675C420 698.333 480 741.667 591.667 696.667C540 686.667 501.667 653.333 495 588.333Z" fill="#B30000"/>
<path d="M168.333 581.667C161.667 581.667 153.333 576.667 151.667 568.333C135 500 175 471.667 191.667 461.667C200 456.667 210 460 213.333 468.333C218.333 476.667 215 486.667 206.667 490C190 498.333 173.333 516.667 183.333 558.333C185 566.667 180 576.667 171.667 578.333C170 581.667 170 581.667 168.333 581.667Z" fill="#FFCDD2"/>
<path d="M480 405C478.333 400 476.667 396.667 475 391.667C475 390 473.333 388.333 473.333 386.667C471.667 383.333 471.667 380 470 378.333C468.333 375 468.333 373.333 466.667 370C465 366.667 465 365 465 361.667C463.333 358.333 463.333 355 461.667 353.333C460 350 460 346.667 458.333 343.333C458.333 341.667 456.667 340 456.667 338.333C455 335 455 331.667 455 328.333C455 326.667 455 325 453.333 323.333C453.333 320 451.667 316.667 451.667 313.333C451.667 311.667 451.667 310 450 308.333C450 305 448.333 301.667 448.333 298.333V295V285V280V270V266.667V256.667V253.333V245V240V233.333V228.333V223.333C448.333 221.667 448.333 220 450 216.667V213.333C450 211.667 451.667 208.333 451.667 206.667V203.333C451.667 200 453.333 198.333 453.333 195V193.333C453.333 190 455 188.333 455 185C465 150 481.667 126.667 488.333 118.333C490 118.333 491.667 116.667 491.667 116.667C500 113.333 503.333 103.333 500 95C496.667 86.6667 491.667 80 483.333 83.3333C483.333 83.3333 481.667 83.3333 481.667 85C480 85 478.333 85 476.667 86.6667C475 86.6667 475 88.3333 473.333 90C241.667 195 250 448.333 250 450C250 458.333 258.333 466.667 266.667 466.667C276.667 466.667 283.333 458.333 283.333 450C283.333 448.333 276.667 255 436.667 146.667C411.667 208.333 391.667 315 468.333 458.333C471.667 463.333 476.667 466.667 483.333 466.667C486.667 466.667 488.333 466.667 491.667 465C498.333 461.667 501.667 455 500 448.333C500 446.667 498.333 443.333 498.333 441.667C495 435 491.667 428.333 488.333 423.333V421.667C485 416.667 481.667 410 480 405Z" fill="#795548"/>
<path d="M633.334 300C603.334 268.333 681.667 83.3333 483.334 83.3333C370 303.333 633.334 300 633.334 300Z" fill="#EB8E0B"/>
</svg>
